<svg width="21" height="22" viewBox="0 0 21 22" fill="none" xmlns="http://www.w3.org/2000/svg">
<path fill-rule="evenodd" clip-rule="evenodd" d="M20.8333 10.6768C20.8333 9.8028 20.8333 9.02603 20.8199 8.33301H0.0134376C1.18356e-07 9.02603 0 9.8028 0 10.6768V12.7601C0 16.6884 1.24176e-07 18.6527 1.22039 19.873C2.44078 21.0934 4.40496 21.0934 8.33333 21.0934H12.5C16.4283 21.0934 18.3926 21.0934 19.6129 19.873C20.8333 18.6527 20.8333 16.6884 20.8333 12.7601V10.6768ZM12.5 10.9372C11.4932 10.9372 10.6771 11.7533 10.6771 12.7601V14.8434C10.6771 15.8502 11.4932 16.6663 12.5 16.6663C13.5068 16.6663 14.3229 15.8502 14.3229 14.8434V12.7601C14.3229 11.7533 13.5068 10.9372 12.5 10.9372ZM12.5 12.4997C12.3561 12.4997 12.2396 12.6162 12.2396 12.7601V14.8434C12.2396 14.9873 12.3561 15.1038 12.5 15.1038C12.6439 15.1038 12.7604 14.9873 12.7604 14.8434V12.7601C12.7604 12.6162 12.6439 12.4997 12.5 12.4997ZM9.15313 10.9967C9.4451 11.1176 9.63542 11.4025 9.63542 11.7184V15.8851C9.63542 16.3166 9.28563 16.6663 8.85417 16.6663C8.42271 16.6663 8.07292 16.3166 8.07292 15.8851V13.6046L7.84409 13.8333C7.539 14.1384 7.04433 14.1384 6.73924 13.8333C6.43415 13.5282 6.43415 13.0336 6.73924 12.7285L8.30174 11.166C8.52521 10.9426 8.86125 10.8757 9.15313 10.9967Z" fill="#489A78"/>
<path d="M5.98905 0.78125C5.98905 0.349781 5.63927 0 5.2078 0C4.77633 0 4.42655 0.349781 4.42655 0.78125V2.42631C2.92725 2.54636 1.94298 2.84101 1.21985 3.56414C0.496729 4.28726 0.202083 5.27153 0.0820312 6.77083H20.7502C20.6302 5.27153 20.3355 4.28726 19.6124 3.56414C18.8893 2.84101 17.905 2.54636 16.4057 2.42631V0.78125C16.4057 0.349781 16.0559 0 15.6245 0C15.193 0 14.8432 0.349781 14.8432 0.78125V2.35719C14.1502 2.34375 13.3734 2.34375 12.4995 2.34375H8.3328C7.45881 2.34375 6.68204 2.34375 5.98905 2.35719V0.78125Z" fill="#489A78"/>
</svg>
