<svg width="21" height="21" viewBox="0 0 21 21" fill="none" xmlns="http://www.w3.org/2000/svg">
<path fill-rule="evenodd" clip-rule="evenodd" d="M1.52549 1.52549C-1.24176e-07 3.05097 0 5.5062 0 10.4167C0 15.3271 -1.24176e-07 17.7824 1.52549 19.3078C3.05097 20.8333 5.5062 20.8333 10.4167 20.8333C15.3271 20.8333 17.7824 20.8333 19.3078 19.3078C20.8333 17.7824 20.8333 15.3271 20.8333 10.4167C20.8333 5.5062 20.8333 3.05097 19.3078 1.52549C17.7824 -1.24176e-07 15.3271 0 10.4167 0C5.5062 0 3.05097 -1.24176e-07 1.52549 1.52549ZM8.89906 5.74713C9.19667 5.43469 9.18458 4.94017 8.87208 4.6426C8.55969 4.34503 8.06517 4.35709 7.7676 4.66954L5.35715 7.20052L4.7324 6.54454C4.43483 6.23209 3.94032 6.22003 3.62788 6.5176C3.31543 6.81517 3.30336 7.30968 3.60094 7.62213L4.79142 8.87208C4.93887 9.02698 5.14333 9.11458 5.35715 9.11458C5.57096 9.11458 5.77542 9.02698 5.92288 8.87208L8.89906 5.74713ZM11.4583 6.51042C11.0269 6.51042 10.6771 6.8602 10.6771 7.29167C10.6771 7.72315 11.0269 8.07292 11.4583 8.07292H16.6667C17.0981 8.07292 17.4479 7.72315 17.4479 7.29167C17.4479 6.8602 17.0981 6.51042 16.6667 6.51042H11.4583ZM8.89906 13.0388C9.19667 12.7264 9.18458 12.2319 8.87208 11.9343C8.55969 11.6367 8.06517 11.6488 7.7676 11.9613L5.35715 14.4922L4.7324 13.8363C4.43483 13.5238 3.94032 13.5117 3.62788 13.8093C3.31543 14.1069 3.30336 14.6014 3.60094 14.9138L4.79142 16.1638C4.93887 16.3186 5.14333 16.4063 5.35715 16.4063C5.57096 16.4063 5.77542 16.3186 5.92288 16.1638L8.89906 13.0388ZM11.4583 13.8021C11.0269 13.8021 10.6771 14.1519 10.6771 14.5833C10.6771 15.0148 11.0269 15.3646 11.4583 15.3646H16.6667C17.0981 15.3646 17.4479 15.0148 17.4479 14.5833C17.4479 14.1519 17.0981 13.8021 16.6667 13.8021H11.4583Z" fill="#489A78"/>
</svg>
