<svg width="21" height="21" viewBox="0 0 21 21" fill="none" xmlns="http://www.w3.org/2000/svg">
<path fill-rule="evenodd" clip-rule="evenodd" d="M1.52549 1.52549C-1.24176e-07 3.05097 0 5.5062 0 10.4167C0 15.3271 -1.24176e-07 17.7824 1.52549 19.3078C3.05097 20.8333 5.5062 20.8333 10.4167 20.8333C15.3271 20.8333 17.7824 20.8333 19.3078 19.3078C20.8333 17.7824 20.8333 15.3271 20.8333 10.4167C20.8333 5.5062 20.8333 3.05097 19.3078 1.52549C17.7824 -1.24176e-07 15.3271 0 10.4167 0C5.5062 0 3.05097 -1.24176e-07 1.52549 1.52549ZM13.5417 10.4167C14.117 10.4167 14.5833 9.71708 14.5833 8.85417C14.5833 7.99122 14.117 7.29167 13.5417 7.29167C12.9664 7.29167 12.5 7.99122 12.5 8.85417C12.5 9.71708 12.9664 10.4167 13.5417 10.4167ZM8.33333 8.85417C8.33333 9.71708 7.86696 10.4167 7.29167 10.4167C6.71637 10.4167 6.25 9.71708 6.25 8.85417C6.25 7.99122 6.71637 7.29167 7.29167 7.29167C7.86696 7.29167 8.33333 7.99122 8.33333 8.85417ZM6.66403 14.1181C6.92097 13.7715 7.41026 13.6987 7.75689 13.9557C8.51562 14.518 9.43135 14.8437 10.4167 14.8437C11.402 14.8437 12.3177 14.518 13.0765 13.9557C13.4231 13.6987 13.9124 13.7715 14.1693 14.1181C14.4262 14.4648 14.3535 14.9541 14.0069 15.2109C12.994 15.9618 11.7552 16.4062 10.4167 16.4062C9.07812 16.4062 7.83937 15.9618 6.82645 15.2109C6.47981 14.9541 6.4071 14.4648 6.66403 14.1181Z" fill="#489A78"/>
</svg>
