<svg width="18" height="20" viewBox="0 0 18 20" fill="none" xmlns="http://www.w3.org/2000/svg">
<path d="M6.5 0C5.67157 0 5 0.67157 5 1.5V2.5C5 3.32843 5.67157 4 6.5 4H11.5C12.3284 4 13 3.32843 13 2.5V1.5C13 0.67157 12.3284 0 11.5 0H6.5Z" fill="#919191"/>
<path fill-rule="evenodd" clip-rule="evenodd" d="M0.87868 2.87645C1.44798 2.30715 2.24209 2.1067 3.5 2.03613V2.49951C3.5 4.15636 4.84315 5.49951 6.5 5.49951H11.5C13.1569 5.49951 14.5 4.15636 14.5 2.49951V2.03613C15.7579 2.1067 16.552 2.30715 17.1213 2.87645C18 3.75513 18 5.16934 18 7.99777V13.9978C18 16.8262 18 18.2404 17.1213 19.1191C16.2426 19.9978 14.8284 19.9978 12 19.9978H6C3.17157 19.9978 1.75736 19.9978 0.87868 19.1191C0 18.2404 0 16.8262 0 13.9978V7.99777C0 5.16934 0 3.75513 0.87868 2.87645ZM9.75 8.99951C9.75 8.58531 9.4142 8.24951 9 8.24951C8.5858 8.24951 8.25 8.58531 8.25 8.99951V11.2495H6C5.58579 11.2495 5.25 11.5853 5.25 11.9995C5.25 12.4137 5.58579 12.7495 6 12.7495H8.25V14.9995C8.25 15.4137 8.5858 15.7495 9 15.7495C9.4142 15.7495 9.75 15.4137 9.75 14.9995V12.7495H12C12.4142 12.7495 12.75 12.4137 12.75 11.9995C12.75 11.5853 12.4142 11.2495 12 11.2495H9.75V8.99951Z" fill="#919191"/>
</svg>
