<svg width="56" height="56" viewBox="0 0 56 56" fill="none" xmlns="http://www.w3.org/2000/svg">
<path fill-rule="evenodd" clip-rule="evenodd" d="M4.08831 4.08831C-3.32793e-07 8.1766 0 14.7566 0 27.9167C0 41.0766 -3.32793e-07 47.6568 4.08831 51.7449C8.1766 55.8333 14.7566 55.8333 27.9167 55.8333C41.0766 55.8333 47.6568 55.8333 51.7449 51.7449C55.8333 47.6568 55.8333 41.0766 55.8333 27.9167C55.8333 14.7566 55.8333 8.1766 51.7449 4.08831C47.6568 -3.32793e-07 41.0766 0 27.9167 0C14.7566 0 8.1766 -3.32793e-07 4.08831 4.08831ZM36.2917 27.9167C37.8335 27.9167 39.0833 26.0418 39.0833 23.7292C39.0833 21.4165 37.8335 19.5417 36.2917 19.5417C34.7498 19.5417 33.5 21.4165 33.5 23.7292C33.5 26.0418 34.7498 27.9167 36.2917 27.9167ZM22.3333 23.7292C22.3333 26.0418 21.0834 27.9167 19.5417 27.9167C17.9999 27.9167 16.75 26.0418 16.75 23.7292C16.75 21.4165 17.9999 19.5417 19.5417 19.5417C21.0834 19.5417 22.3333 21.4165 22.3333 23.7292ZM17.8596 37.8366C18.5482 36.9075 19.8595 36.7126 20.7885 37.4014C22.8219 38.9083 25.276 39.7812 27.9167 39.7812C30.5573 39.7812 33.0115 38.9083 35.0449 37.4014C35.974 36.7126 37.2852 36.9075 37.9736 37.8366C38.6623 38.7656 38.4675 40.0769 37.5384 40.7653C34.8238 42.7775 31.504 43.9687 27.9167 43.9687C24.3294 43.9687 21.0095 42.7775 18.2949 40.7653C17.3659 40.0769 17.171 38.7656 17.8596 37.8366Z" fill="#DADADA"/>
</svg>
