<svg width="21" height="24" viewBox="0 0 21 24" fill="none" xmlns="http://www.w3.org/2000/svg">
<path fill-rule="evenodd" clip-rule="evenodd" d="M12.2102 22.1662L11.641 23.2653C11.1337 24.2449 9.86632 24.2449 9.35896 23.2653L8.78976 22.1662C8.34827 21.3138 8.12751 20.8876 7.77293 20.6518C7.41834 20.4162 6.97192 20.4074 6.07906 20.3899C4.76093 20.3638 3.93423 20.2716 3.24091 19.9434C1.95451 19.3344 0.932473 18.1664 0.39963 16.6961C-3.12924e-08 15.5936 0 14.1957 0 11.4V10.2C0 6.27191 -6.25849e-08 4.30784 0.77364 2.86502C1.20653 2.05768 1.80047 1.3789 2.50689 0.884163C3.76934 -7.15258e-08 5.4879 0 8.925 0H12.075C15.5121 0 17.2306 -7.15258e-08 18.4931 0.884163C19.1996 1.3789 19.7934 2.05768 20.2264 2.86502C21 4.30784 21 6.27191 21 10.2V11.4C21 14.1957 21 15.5936 20.6004 16.6961C20.0675 18.1664 19.0455 19.3344 17.7591 19.9434C17.0658 20.2716 16.2391 20.3638 14.9209 20.3899C14.028 20.4074 13.5816 20.4162 13.2271 20.6518C12.8725 20.8875 12.6517 21.3138 12.2102 22.1662ZM6.3 11.7C5.86508 11.7 5.5125 12.103 5.5125 12.6C5.5125 13.0971 5.86508 13.5001 6.3 13.5001H12.075C12.5099 13.5001 12.8625 13.0971 12.8625 12.6C12.8625 12.103 12.5099 11.7 12.075 11.7H6.3ZM5.5125 8.40003C5.5125 7.90298 5.86508 7.50003 6.3 7.50003H14.7C15.1349 7.50003 15.4875 7.90298 15.4875 8.40003C15.4875 8.89709 15.1349 9.30004 14.7 9.30004H6.3C5.86508 9.30004 5.5125 8.89709 5.5125 8.40003Z" fill="#DADADA"/>
</svg>
