<svg width="25" height="25" viewBox="0 0 25 25" fill="none" xmlns="http://www.w3.org/2000/svg">
<path fill-rule="evenodd" clip-rule="evenodd" d="M3.60752 3.6085C2.08203 5.13398 2.08203 7.58921 2.08203 12.4997C2.08203 17.4101 2.08203 19.8654 3.60752 21.3908C5.133 22.9163 7.58823 22.9163 12.4987 22.9163C17.4091 22.9163 19.8644 22.9163 21.3898 21.3908C22.9154 19.8654 22.9154 17.4101 22.9154 12.4997C22.9154 7.58921 22.9154 5.13398 21.3898 3.6085C19.8644 2.08301 17.4091 2.08301 12.4987 2.08301C7.58823 2.08301 5.133 2.08301 3.60752 3.6085ZM15.6237 12.4997C16.199 12.4997 16.6654 11.8001 16.6654 10.9372C16.6654 10.0742 16.199 9.37467 15.6237 9.37467C15.0484 9.37467 14.582 10.0742 14.582 10.9372C14.582 11.8001 15.0484 12.4997 15.6237 12.4997ZM10.4154 10.9372C10.4154 11.8001 9.94899 12.4997 9.3737 12.4997C8.79841 12.4997 8.33203 11.8001 8.33203 10.9372C8.33203 10.0742 8.79841 9.37467 9.3737 9.37467C9.94899 9.37467 10.4154 10.0742 10.4154 10.9372ZM8.74606 16.2011C9.003 15.8545 9.49229 15.7818 9.83892 16.0387C10.5977 16.601 11.5134 16.9268 12.4987 16.9268C13.484 16.9268 14.3997 16.601 15.1585 16.0387C15.5052 15.7818 15.9944 15.8545 16.2513 16.2011C16.5083 16.5478 16.4356 17.0371 16.0889 17.2939C15.076 18.0448 13.8372 18.4893 12.4987 18.4893C11.1602 18.4893 9.92141 18.0448 8.90848 17.2939C8.56184 17.0371 8.48914 16.5478 8.74606 16.2011Z" fill="#DADADA"/>
</svg>
