<svg width="12" height="12" viewBox="0 0 12 12" fill="none" xmlns="http://www.w3.org/2000/svg">
<path d="M5.48342 9.42673C5.14675 9.7634 4.97842 9.93173 4.79275 10.0766C4.57384 10.2473 4.33692 10.3937 4.08625 10.5132C3.87375 10.6145 3.64792 10.6897 3.19617 10.8403L0.814243 11.6343C0.59196 11.7084 0.346885 11.6506 0.181201 11.4849C0.0155181 11.3191 -0.0423318 11.0741 0.0317599 10.8518L0.825743 8.4699C0.97631 8.01815 1.05159 7.79231 1.15287 7.57981C1.27233 7.32915 1.41874 7.09223 1.58953 6.87331C1.73433 6.68765 1.90267 6.51935 2.23934 6.18267L6.33609 2.08594C6.55584 2.66443 6.94109 3.37992 7.61359 4.05245C8.28617 4.72497 9.00167 5.1102 9.58017 5.33001L5.48342 9.42673Z" fill="#DADADA"/>
<path d="M10.993 0.671869C11.8888 1.5677 11.8888 3.02013 10.993 3.91595L10.58 4.32891C10.4598 4.30288 10.3084 4.26324 10.1358 4.20337C9.67385 4.0431 9.06677 3.74023 8.49569 3.16917C7.9246 2.59812 7.62177 1.99103 7.46152 1.52909C7.4016 1.35651 7.36202 1.20508 7.33594 1.08483L7.74894 0.671869C8.64477 -0.223956 10.0972 -0.223956 10.993 0.671869Z" fill="#DADADA"/>
</svg>
