<svg width="20" height="20" viewBox="0 0 20 20" fill="none" xmlns="http://www.w3.org/2000/svg">
<path fill-rule="evenodd" clip-rule="evenodd" d="M1.46447 1.46447C-1.19209e-07 2.92893 0 5.28595 0 10C0 14.714 -1.19209e-07 17.0711 1.46447 18.5355C2.92893 20 5.28595 20 10 20C14.714 20 17.0711 20 18.5355 18.5355C20 17.0711 20 14.714 20 10C20 5.28595 20 2.92893 18.5355 1.46447C17.0711 -1.19209e-07 14.714 0 10 0C5.28595 0 2.92893 -1.19209e-07 1.46447 1.46447ZM3.46058 9.0833C3.83333 5.79988 6.62406 3.25 10.0096 3.25C11.9916 3.25 13.7702 4.12471 14.9775 5.50653C15.25 5.81846 15.2181 6.29226 14.9061 6.56479C14.5942 6.83733 14.1204 6.80539 13.8479 6.49347C12.9136 5.42409 11.541 4.75 10.0096 4.75C7.45215 4.75 5.33642 6.63219 4.97332 9.0833H5.33654C5.63998 9.0833 5.91353 9.2662 6.02955 9.5466C6.14558 9.8269 6.08122 10.1496 5.86651 10.364L4.69825 11.5307C4.40544 11.8231 3.93113 11.8231 3.63832 11.5307L2.47005 10.364C2.25534 10.1496 2.19099 9.8269 2.30701 9.5466C2.42304 9.2662 2.69658 9.0833 3.00002 9.0833H3.46058ZM15.3018 8.4693C15.5947 8.1769 16.069 8.1769 16.3618 8.4693L17.53 9.636C17.7448 9.8504 17.8091 10.1731 17.6931 10.4534C17.5771 10.7338 17.3035 10.9167 17.0001 10.9167H16.5395C16.1668 14.2001 13.376 16.75 9.9905 16.75C8.0085 16.75 6.22995 15.8753 5.02263 14.4935C4.7501 14.1815 4.78203 13.7077 5.09396 13.4352C5.40589 13.1627 5.87968 13.1946 6.15222 13.5065C7.08654 14.5759 8.4591 15.25 9.9905 15.25C12.548 15.25 14.6637 13.3678 15.0268 10.9167H14.6636C14.3601 10.9167 14.0866 10.7338 13.9705 10.4534C13.8545 10.1731 13.9189 9.8504 14.1336 9.636L15.3018 8.4693Z" fill="#9C9C9C"/>
</svg>
