<svg width="20" height="20" viewBox="0 0 20 20" fill="none" xmlns="http://www.w3.org/2000/svg">
<path fill-rule="evenodd" clip-rule="evenodd" d="M0.122642 10.816C0.410182 11.8186 1.18295 12.5914 2.72848 14.1369L4.55812 15.9665C7.24711 18.6555 8.5916 20 10.2623 20C11.933 20 13.2775 18.6555 15.9665 15.9665C18.6555 13.2775 20 11.933 20 10.2623C20 8.5916 18.6555 7.24711 15.9665 4.55812L14.1369 2.72848C12.5914 1.18295 11.8186 0.410182 10.816 0.122642C9.8134 -0.164908 8.7485 0.0808324 6.61875 0.572312L5.39057 0.855742C3.5988 1.26922 2.70292 1.47597 2.08944 2.08944C1.47597 2.70292 1.26922 3.59881 0.855742 5.39057L0.572312 6.61875C0.0808324 8.7485 -0.164908 9.8134 0.122642 10.816ZM8.1234 5.27098C8.911 6.05856 8.911 7.33549 8.1234 8.1231C7.33581 8.9107 6.05888 8.9107 5.27129 8.1231C4.48371 7.33549 4.48371 6.05856 5.27129 5.27098C6.05888 4.48339 7.33581 4.48339 8.1234 5.27098ZM17.0511 10.0511L10.0721 17.0303C9.7792 17.3232 9.3043 17.3232 9.0114 17.0303C8.7185 16.7375 8.7185 16.2626 9.0114 15.9697L15.9904 8.9904C16.2833 8.6975 16.7582 8.6975 17.0511 8.9904C17.344 9.2833 17.344 9.7582 17.0511 10.0511Z" fill="#919191"/>
</svg>
