<svg width="58" height="53" viewBox="0 0 58 53" fill="none" xmlns="http://www.w3.org/2000/svg">
<g filter="url(#filter0_d_694_3113)">
<path fill-rule="evenodd" clip-rule="evenodd" d="M19.8263 19.8253C18.3008 21.3508 18.3008 23.806 18.3008 28.7165C18.3008 33.6269 18.3008 36.0822 19.8263 37.6076C21.3517 39.1331 23.807 39.1331 28.7174 39.1331C33.6279 39.1331 36.0832 39.1331 37.6086 37.6076C39.1341 36.0822 39.1341 33.6269 39.1341 28.7165C39.1341 23.806 39.1341 21.3508 37.6086 19.8253C36.0832 18.2998 33.6279 18.2998 28.7174 18.2998C23.807 18.2998 21.3517 18.2998 19.8263 19.8253ZM31.8424 28.7165C32.4178 28.7165 32.8841 28.0169 32.8841 27.154C32.8841 26.291 32.4178 25.5915 31.8424 25.5915C31.2671 25.5915 30.8008 26.291 30.8008 27.154C30.8008 28.0169 31.2671 28.7165 31.8424 28.7165ZM26.6341 27.154C26.6341 28.0169 26.1677 28.7165 25.5924 28.7165C25.0172 28.7165 24.5508 28.0169 24.5508 27.154C24.5508 26.291 25.0172 25.5915 25.5924 25.5915C26.1677 25.5915 26.6341 26.291 26.6341 27.154ZM24.9648 32.4179C25.2218 32.0713 25.711 31.9986 26.0577 32.2555C26.8164 32.8178 27.7321 33.1436 28.7174 33.1436C29.7028 33.1436 30.6185 32.8178 31.3772 32.2555C31.7239 31.9986 32.2132 32.0713 32.4701 32.4179C32.727 32.7646 32.6543 33.2539 32.3077 33.5107C31.2947 34.2616 30.056 34.7061 28.7174 34.7061C27.3789 34.7061 26.1402 34.2616 25.1272 33.5107C24.7806 33.2539 24.7079 32.7646 24.9648 32.4179Z" fill="#489A78"/>
</g>
<defs>
<filter id="filter0_d_694_3113" x="-2.08125" y="-2.0832" width="61.6" height="61.6" filterUnits="userSpaceOnUse" color-interpolation-filters="sRGB">
<feFlood flood-opacity="0" result="BackgroundImageFix"/>
<feColorMatrix in="SourceAlpha" type="matrix" values="0 0 0 0 0 0 0 0 0 0 0 0 0 0 0 0 0 0 127 0" result="hardAlpha"/>
<feOffset/>
<feGaussianBlur stdDeviation="9.15"/>
<feComposite in2="hardAlpha" operator="out"/>
<feColorMatrix type="matrix" values="0 0 0 0 0.282353 0 0 0 0 0.603922 0 0 0 0 0.470588 0 0 0 0.61 0"/>
<feBlend mode="normal" in2="BackgroundImageFix" result="effect1_dropShadow_694_3113"/>
<feBlend mode="normal" in="SourceGraphic" in2="effect1_dropShadow_694_3113" result="shape"/>
</filter>
</defs>
</svg>
