<svg width="25" height="25" viewBox="0 0 25 25" fill="none" xmlns="http://www.w3.org/2000/svg">
<path d="M8.07108 2.60449C8.07108 2.17302 7.7213 1.82324 7.28983 1.82324C6.85836 1.82324 6.50858 2.17302 6.50858 2.60449V4.24955C5.00928 4.36961 4.02501 4.66425 3.30189 5.38738C2.57876 6.1105 2.28411 7.09477 2.16406 8.59408H22.8322C22.7122 7.09477 22.4175 6.1105 21.6944 5.38738C20.9713 4.66425 19.987 4.36961 18.4877 4.24955V2.60449C18.4877 2.17302 18.138 1.82324 17.7065 1.82324C17.275 1.82324 16.9252 2.17302 16.9252 2.60449V4.18043C16.2322 4.16699 15.4555 4.16699 14.5815 4.16699H10.4148C9.54084 4.16699 8.76407 4.16699 8.07108 4.18043V2.60449Z" fill="#DADADA"/>
<path fill-rule="evenodd" clip-rule="evenodd" d="M22.9154 12.5C22.9154 11.626 22.9154 10.8493 22.9019 10.1562H2.09547C2.08203 10.8493 2.08203 11.626 2.08203 12.5V14.5833C2.08203 18.5117 2.08203 20.4759 3.30242 21.6963C4.52281 22.9167 6.48699 22.9167 10.4154 22.9167H14.582C18.5104 22.9167 20.4746 22.9167 21.6949 21.6963C22.9154 20.4759 22.9154 18.5117 22.9154 14.5833V12.5ZM14.582 12.7604C13.5753 12.7604 12.7591 13.5766 12.7591 14.5833V16.6667C12.7591 17.6734 13.5753 18.4896 14.582 18.4896C15.5888 18.4896 16.4049 17.6734 16.4049 16.6667V14.5833C16.4049 13.5766 15.5888 12.7604 14.582 12.7604ZM14.582 14.3229C14.4382 14.3229 14.3216 14.4395 14.3216 14.5833V16.6667C14.3216 16.8105 14.4382 16.9271 14.582 16.9271C14.7259 16.9271 14.8424 16.8105 14.8424 16.6667V14.5833C14.8424 14.4395 14.7259 14.3229 14.582 14.3229ZM11.2352 12.8199C11.5271 12.9408 11.7174 13.2257 11.7174 13.5417V17.7083C11.7174 18.1398 11.3677 18.4896 10.9362 18.4896C10.5047 18.4896 10.1549 18.1398 10.1549 17.7083V15.4278L9.92613 15.6566C9.62103 15.9617 9.12637 15.9617 8.82127 15.6566C8.51618 15.3515 8.51618 14.8569 8.82127 14.5518L10.3838 12.9893C10.6072 12.7658 10.9433 12.699 11.2352 12.8199Z" fill="#DADADA"/>
</svg>
