<svg width="25" height="25" viewBox="0 0 25 25" fill="none" xmlns="http://www.w3.org/2000/svg">
<path fill-rule="evenodd" clip-rule="evenodd" d="M3.60752 3.6085C2.08203 5.13398 2.08203 7.58921 2.08203 12.4997C2.08203 17.4101 2.08203 19.8654 3.60752 21.3908C5.133 22.9163 7.58823 22.9163 12.4987 22.9163C17.4091 22.9163 19.8644 22.9163 21.3898 21.3908C22.9154 19.8654 22.9154 17.4101 22.9154 12.4997C22.9154 7.58921 22.9154 5.13398 21.3898 3.6085C19.8644 2.08301 17.4091 2.08301 12.4987 2.08301C7.58823 2.08301 5.133 2.08301 3.60752 3.6085ZM10.9811 7.83013C11.2787 7.5177 11.2666 7.02317 10.9541 6.72561C10.6417 6.42804 10.1472 6.4401 9.84964 6.75255L7.43918 9.28353L6.81443 8.62755C6.51686 8.3151 6.02235 8.30304 5.70991 8.60061C5.39746 8.89817 5.3854 9.39269 5.68297 9.70513L6.87345 10.9551C7.0209 11.11 7.22536 11.1976 7.43918 11.1976C7.65299 11.1976 7.85745 11.11 8.00491 10.9551L10.9811 7.83013ZM13.5404 8.59342C13.1089 8.59342 12.7591 8.94321 12.7591 9.37467C12.7591 9.80615 13.1089 10.1559 13.5404 10.1559H18.7487C19.1802 10.1559 19.5299 9.80615 19.5299 9.37467C19.5299 8.94321 19.1802 8.59342 18.7487 8.59342H13.5404ZM10.9811 15.1218C11.2787 14.8094 11.2666 14.3149 10.9541 14.0173C10.6417 13.7197 10.1472 13.7318 9.84964 14.0443L7.43918 16.5752L6.81443 15.9193C6.51686 15.6068 6.02235 15.5947 5.70991 15.8923C5.39746 16.1899 5.3854 16.6844 5.68297 16.9968L6.87345 18.2468C7.0209 18.4017 7.22536 18.4893 7.43918 18.4893C7.65299 18.4893 7.85745 18.4017 8.00491 18.2468L10.9811 15.1218ZM13.5404 15.8851C13.1089 15.8851 12.7591 16.2349 12.7591 16.6663C12.7591 17.0978 13.1089 17.4476 13.5404 17.4476H18.7487C19.1802 17.4476 19.5299 17.0978 19.5299 16.6663C19.5299 16.2349 19.1802 15.8851 18.7487 15.8851H13.5404Z" fill="#DADADA"/>
</svg>
