<?xml version="1.0" encoding="UTF-8"?>
<svg xmlns:xlink="http://www.w3.org/1999/xlink" id="mermaid-svg-59" width="100%" xmlns="http://www.w3.org/2000/svg" class="flowchart" style="max-width: 100%;" viewBox="-36.6 -36.6 6072.137500000001 805.2" role="graphics-document document" aria-roledescription="flowchart-v2" height="100%"><style>#mermaid-svg-59{font-family:"trebuchet ms",verdana,arial,sans-serif;font-size:16px;fill:#ccc;}@keyframes edge-animation-frame{from{stroke-dashoffset:0;}}@keyframes dash{to{stroke-dashoffset:0;}}#mermaid-svg-59 .edge-animation-slow{stroke-dasharray:9,5!important;stroke-dashoffset:900;animation:dash 50s linear infinite;stroke-linecap:round;}#mermaid-svg-59 .edge-animation-fast{stroke-dasharray:9,5!important;stroke-dashoffset:900;animation:dash 20s linear infinite;stroke-linecap:round;}#mermaid-svg-59 .error-icon{fill:#a44141;}#mermaid-svg-59 .error-text{fill:#ddd;stroke:#ddd;}#mermaid-svg-59 .edge-thickness-normal{stroke-width:1px;}#mermaid-svg-59 .edge-thickness-thick{stroke-width:3.5px;}#mermaid-svg-59 .edge-pattern-solid{stroke-dasharray:0;}#mermaid-svg-59 .edge-thickness-invisible{stroke-width:0;fill:none;}#mermaid-svg-59 .edge-pattern-dashed{stroke-dasharray:3;}#mermaid-svg-59 .edge-pattern-dotted{stroke-dasharray:2;}#mermaid-svg-59 .marker{fill:lightgrey;stroke:lightgrey;}#mermaid-svg-59 .marker.cross{stroke:lightgrey;}#mermaid-svg-59 svg{font-family:"trebuchet ms",verdana,arial,sans-serif;font-size:16px;}#mermaid-svg-59 p{margin:0;}#mermaid-svg-59 .label{font-family:"trebuchet ms",verdana,arial,sans-serif;color:#ccc;}#mermaid-svg-59 .cluster-label text{fill:#F9FFFE;}#mermaid-svg-59 .cluster-label span{color:#F9FFFE;}#mermaid-svg-59 .cluster-label span p{background-color:transparent;}#mermaid-svg-59 .label text,#mermaid-svg-59 span{fill:#ccc;color:#ccc;}#mermaid-svg-59 .node rect,#mermaid-svg-59 .node circle,#mermaid-svg-59 .node ellipse,#mermaid-svg-59 .node polygon,#mermaid-svg-59 .node path{fill:#1f2020;stroke:#ccc;stroke-width:1px;}#mermaid-svg-59 .rough-node .label text,#mermaid-svg-59 .node .label text,#mermaid-svg-59 .image-shape .label,#mermaid-svg-59 .icon-shape .label{text-anchor:middle;}#mermaid-svg-59 .node .katex path{fill:#000;stroke:#000;stroke-width:1px;}#mermaid-svg-59 .rough-node .label,#mermaid-svg-59 .node .label,#mermaid-svg-59 .image-shape .label,#mermaid-svg-59 .icon-shape .label{text-align:center;}#mermaid-svg-59 .node.clickable{cursor:pointer;}#mermaid-svg-59 .root .anchor path{fill:lightgrey!important;stroke-width:0;stroke:lightgrey;}#mermaid-svg-59 .arrowheadPath{fill:lightgrey;}#mermaid-svg-59 .edgePath .path{stroke:lightgrey;stroke-width:2.0px;}#mermaid-svg-59 .flowchart-link{stroke:lightgrey;fill:none;}#mermaid-svg-59 .edgeLabel{background-color:hsl(0, 0%, 34.4117647059%);text-align:center;}#mermaid-svg-59 .edgeLabel p{background-color:hsl(0, 0%, 34.4117647059%);}#mermaid-svg-59 .edgeLabel rect{opacity:0.5;background-color:hsl(0, 0%, 34.4117647059%);fill:hsl(0, 0%, 34.4117647059%);}#mermaid-svg-59 .labelBkg{background-color:rgba(87.75, 87.75, 87.75, 0.5);}#mermaid-svg-59 .cluster rect{fill:hsl(180, 1.5873015873%, 28.3529411765%);stroke:rgba(255, 255, 255, 0.25);stroke-width:1px;}#mermaid-svg-59 .cluster text{fill:#F9FFFE;}#mermaid-svg-59 .cluster span{color:#F9FFFE;}#mermaid-svg-59 div.mermaidTooltip{position:absolute;text-align:center;max-width:200px;padding:2px;font-family:"trebuchet ms",verdana,arial,sans-serif;font-size:12px;background:hsl(20, 1.5873015873%, 12.3529411765%);border:1px solid rgba(255, 255, 255, 0.25);border-radius:2px;pointer-events:none;z-index:100;}#mermaid-svg-59 .flowchartTitleText{text-anchor:middle;font-size:18px;fill:#ccc;}#mermaid-svg-59 rect.text{fill:none;stroke-width:0;}#mermaid-svg-59 .icon-shape,#mermaid-svg-59 .image-shape{background-color:hsl(0, 0%, 34.4117647059%);text-align:center;}#mermaid-svg-59 .icon-shape p,#mermaid-svg-59 .image-shape p{background-color:hsl(0, 0%, 34.4117647059%);padding:2px;}#mermaid-svg-59 .icon-shape rect,#mermaid-svg-59 .image-shape rect{opacity:0.5;background-color:hsl(0, 0%, 34.4117647059%);fill:hsl(0, 0%, 34.4117647059%);}#mermaid-svg-59 .label-icon{display:inline-block;height:1em;overflow:visible;vertical-align:-0.125em;}#mermaid-svg-59 .node .label-icon path{fill:currentColor;stroke:revert;stroke-width:revert;}#mermaid-svg-59 :root{--mermaid-font-family:"trebuchet ms",verdana,arial,sans-serif;}</style><g><marker id="mermaid-svg-59_flowchart-v2-pointEnd" class="marker flowchart-v2" viewBox="0 0 10 10" refX="5" refY="5" markerUnits="userSpaceOnUse" markerWidth="8" markerHeight="8" orient="auto"><path d="M 0 0 L 10 5 L 0 10 z" class="arrowMarkerPath" style="stroke-width: 1; stroke-dasharray: 1, 0;"></path></marker><marker id="mermaid-svg-59_flowchart-v2-pointStart" class="marker flowchart-v2" viewBox="0 0 10 10" refX="4.5" refY="5" markerUnits="userSpaceOnUse" markerWidth="8" markerHeight="8" orient="auto"><path d="M 0 5 L 10 10 L 10 0 z" class="arrowMarkerPath" style="stroke-width: 1; stroke-dasharray: 1, 0;"></path></marker><marker id="mermaid-svg-59_flowchart-v2-circleEnd" class="marker flowchart-v2" viewBox="0 0 10 10" refX="11" refY="5" markerUnits="userSpaceOnUse" markerWidth="11" markerHeight="11" orient="auto"><circle cx="5" cy="5" r="5" class="arrowMarkerPath" style="stroke-width: 1; stroke-dasharray: 1, 0;"></circle></marker><marker id="mermaid-svg-59_flowchart-v2-circleStart" class="marker flowchart-v2" viewBox="0 0 10 10" refX="-1" refY="5" markerUnits="userSpaceOnUse" markerWidth="11" markerHeight="11" orient="auto"><circle cx="5" cy="5" r="5" class="arrowMarkerPath" style="stroke-width: 1; stroke-dasharray: 1, 0;"></circle></marker><marker id="mermaid-svg-59_flowchart-v2-crossEnd" class="marker cross flowchart-v2" viewBox="0 0 11 11" refX="12" refY="5.2" markerUnits="userSpaceOnUse" markerWidth="11" markerHeight="11" orient="auto"><path d="M 1,1 l 9,9 M 10,1 l -9,9" class="arrowMarkerPath" style="stroke-width: 2; stroke-dasharray: 1, 0;"></path></marker><marker id="mermaid-svg-59_flowchart-v2-crossStart" class="marker cross flowchart-v2" viewBox="0 0 11 11" refX="-1" refY="5.2" markerUnits="userSpaceOnUse" markerWidth="11" markerHeight="11" orient="auto"><path d="M 1,1 l 9,9 M 10,1 l -9,9" class="arrowMarkerPath" style="stroke-width: 2; stroke-dasharray: 1, 0;"></path></marker><g class="root"><g class="clusters"><g class="cluster" id="B" data-look="classic"><rect style="" x="8" y="546" width="5982.9375" height="178"></rect><g class="cluster-label" transform="translate(2899.46875, 546)"><foreignObject width="200" height="48"><div xmlns="http://www.w3.org/1999/xhtml" style="display: table; white-space: break-spaces; line-height: 1.5; max-width: 200px; text-align: center; width: 200px;"><span class="nodeLabel"><p>Функциональность системы</p></span></div></foreignObject></g></g><g class="cluster" id="A" data-look="classic"><rect style="" x="140.5" y="8" width="5690.112503051758" height="488"></rect><g class="cluster-label" transform="translate(2924.9375, 8)"><foreignObject width="121.23750305175781" height="24"><div xmlns="http://www.w3.org/1999/xhtml" style="display: table-cell; white-space: nowrap; line-height: 1.5; max-width: 200px; text-align: center;"><span class="nodeLabel"><p>Акторы системы</p></span></div></foreignObject></g></g><g class="cluster" id="B4" data-look="classic"><rect style="" x="28" y="571" width="1128.9125061035156" height="128"></rect><g class="cluster-label" transform="translate(511.3000030517578, 571)"><foreignObject width="162.3125" height="24"><div xmlns="http://www.w3.org/1999/xhtml" style="display: table-cell; white-space: nowrap; line-height: 1.5; max-width: 200px; text-align: center;"><span class="nodeLabel"><p>Управление группами</p></span></div></foreignObject></g></g><g class="cluster" id="B3" data-look="classic"><rect style="" x="1176.9125061035156" y="571" width="1965.7624969482422" height="128"></rect><g class="cluster-label" transform="translate(2080.0625, 571)"><foreignObject width="159.46250915527344" height="24"><div xmlns="http://www.w3.org/1999/xhtml" style="display: table-cell; white-space: nowrap; line-height: 1.5; max-width: 200px; text-align: center;"><span class="nodeLabel"><p>Социальные функции</p></span></div></foreignObject></g></g><g class="cluster" id="B2" data-look="classic"><rect style="" x="3162.675003051758" y="571" width="1756.1625061035156" height="128"></rect><g class="cluster-label" transform="translate(3948.8500061035156, 571)"><foreignObject width="183.8125" height="24"><div xmlns="http://www.w3.org/1999/xhtml" style="display: table-cell; white-space: nowrap; line-height: 1.5; max-width: 200px; text-align: center;"><span class="nodeLabel"><p>Управление привычками</p></span></div></foreignObject></g></g><g class="cluster" id="B1" data-look="classic"><rect style="" x="4938.837509155273" y="571" width="1032.0999908447266" height="128"></rect><g class="cluster-label" transform="translate(5354.887504577637, 571)"><foreignObject width="200" height="48"><div xmlns="http://www.w3.org/1999/xhtml" style="display: table; white-space: break-spaces; line-height: 1.5; max-width: 200px; text-align: center; width: 200px;"><span class="nodeLabel"><p>Аутентификация и профиль</p></span></div></foreignObject></g></g></g><g class="edgePaths"><path d="M5212.619,456.252L5185.525,462.876C5158.431,469.501,5104.244,482.751,5077.15,493.542C5050.056,504.333,5050.056,512.667,5050.056,521C5050.056,529.333,5050.056,537.667,5050.056,546C5050.056,554.333,5050.056,562.667,5050.056,572.333C5050.056,582,5050.056,593,5050.056,598.5L5050.056,604" id="L_U1_UC1_0" class="edge-thickness-normal edge-pattern-solid edge-thickness-normal edge-pattern-solid flowchart-link" style="" marker-end="url(#mermaid-svg-59_flowchart-v2-pointEnd)"></path><path d="M5262.725,471L5262.725,475.167C5262.725,479.333,5262.725,487.667,5262.725,496C5262.725,504.333,5262.725,512.667,5262.725,521C5262.725,529.333,5262.725,537.667,5262.725,546C5262.725,554.333,5262.725,562.667,5262.725,572.333C5262.725,582,5262.725,593,5262.725,598.5L5262.725,604" id="L_U1_UC2_0" class="edge-thickness-normal edge-pattern-solid edge-thickness-normal edge-pattern-solid flowchart-link" style="" marker-end="url(#mermaid-svg-59_flowchart-v2-pointEnd)"></path><path d="M5312.831,454.238L5346.898,461.198C5380.965,468.158,5449.098,482.079,5483.165,493.206C5517.231,504.333,5517.231,512.667,5517.231,521C5517.231,529.333,5517.231,537.667,5517.231,546C5517.231,554.333,5517.231,562.667,5517.231,572.333C5517.231,582,5517.231,593,5517.231,598.5L5517.231,604" id="L_U1_UC3_0" class="edge-thickness-normal edge-pattern-solid edge-thickness-normal edge-pattern-solid flowchart-link" style="" marker-end="url(#mermaid-svg-59_flowchart-v2-pointEnd)"></path><path d="M4001.9,318.732L4303.352,328.943C4604.804,339.154,5207.708,359.577,5509.16,380.455C5810.613,401.333,5810.613,422.667,5810.613,442C5810.613,461.333,5810.613,478.667,5810.613,491.5C5810.613,504.333,5810.613,512.667,5810.613,521C5810.613,529.333,5810.613,537.667,5810.613,546C5810.613,554.333,5810.613,562.667,5810.613,572.333C5810.613,582,5810.613,593,5810.613,598.5L5810.613,604" id="L_U2_UC4_0" class="edge-thickness-normal edge-pattern-solid edge-thickness-normal edge-pattern-solid flowchart-link" style="" marker-end="url(#mermaid-svg-59_flowchart-v2-pointEnd)"></path><path d="M3840.612,324.632L3754.406,333.86C3668.2,343.088,3495.787,361.544,3409.581,381.439C3323.375,401.333,3323.375,422.667,3323.375,442C3323.375,461.333,3323.375,478.667,3323.375,491.5C3323.375,504.333,3323.375,512.667,3323.375,521C3323.375,529.333,3323.375,537.667,3323.375,546C3323.375,554.333,3323.375,562.667,3323.375,572.333C3323.375,582,3323.375,593,3323.375,598.5L3323.375,604" id="L_U2_UC5_0" class="edge-thickness-normal edge-pattern-solid edge-thickness-normal edge-pattern-solid flowchart-link" style="" marker-end="url(#mermaid-svg-59_flowchart-v2-pointEnd)"></path><path d="M3840.612,333.664L3805.356,341.387C3770.1,349.11,3699.587,364.555,3664.331,382.944C3629.075,401.333,3629.075,422.667,3629.075,442C3629.075,461.333,3629.075,478.667,3629.075,491.5C3629.075,504.333,3629.075,512.667,3629.075,521C3629.075,529.333,3629.075,537.667,3629.075,546C3629.075,554.333,3629.075,562.667,3629.075,570.333C3629.075,578,3629.075,585,3629.075,588.5L3629.075,592" id="L_U2_UC6_0" class="edge-thickness-normal edge-pattern-solid edge-thickness-normal edge-pattern-solid flowchart-link" style="" marker-end="url(#mermaid-svg-59_flowchart-v2-pointEnd)"></path><path d="M3921.256,343L3921.256,349.167C3921.256,355.333,3921.256,367.667,3921.256,384.5C3921.256,401.333,3921.256,422.667,3921.256,442C3921.256,461.333,3921.256,478.667,3921.256,491.5C3921.256,504.333,3921.256,512.667,3921.256,521C3921.256,529.333,3921.256,537.667,3921.256,546C3921.256,554.333,3921.256,562.667,3921.256,572.333C3921.256,582,3921.256,593,3921.256,598.5L3921.256,604" id="L_U2_UC7_0" class="edge-thickness-normal edge-pattern-solid edge-thickness-normal edge-pattern-solid flowchart-link" style="" marker-end="url(#mermaid-svg-59_flowchart-v2-pointEnd)"></path><path d="M4001.9,334.141L4035.878,341.784C4069.856,349.427,4137.813,364.714,4171.791,383.023C4205.769,401.333,4205.769,422.667,4205.769,442C4205.769,461.333,4205.769,478.667,4205.769,491.5C4205.769,504.333,4205.769,512.667,4205.769,521C4205.769,529.333,4205.769,537.667,4205.769,546C4205.769,554.333,4205.769,562.667,4205.769,572.333C4205.769,582,4205.769,593,4205.769,598.5L4205.769,604" id="L_U2_UC8_0" class="edge-thickness-normal edge-pattern-solid edge-thickness-normal edge-pattern-solid flowchart-link" style="" marker-end="url(#mermaid-svg-59_flowchart-v2-pointEnd)"></path><path d="M4001.9,325.304L4080.911,334.42C4159.923,343.536,4317.946,361.768,4396.957,381.551C4475.969,401.333,4475.969,422.667,4475.969,442C4475.969,461.333,4475.969,478.667,4475.969,491.5C4475.969,504.333,4475.969,512.667,4475.969,521C4475.969,529.333,4475.969,537.667,4475.969,546C4475.969,554.333,4475.969,562.667,4475.969,572.333C4475.969,582,4475.969,593,4475.969,598.5L4475.969,604" id="L_U2_UC9_0" class="edge-thickness-normal edge-pattern-solid edge-thickness-normal edge-pattern-solid flowchart-link" style="" marker-end="url(#mermaid-svg-59_flowchart-v2-pointEnd)"></path><path d="M4001.9,322.199L4127.223,331.833C4252.546,341.466,4503.192,360.733,4628.515,381.033C4753.838,401.333,4753.838,422.667,4753.838,442C4753.838,461.333,4753.838,478.667,4753.838,491.5C4753.838,504.333,4753.838,512.667,4753.838,521C4753.838,529.333,4753.838,537.667,4753.838,546C4753.838,554.333,4753.838,562.667,4753.838,570.333C4753.838,578,4753.838,585,4753.838,588.5L4753.838,592" id="L_U2_UC10_0" class="edge-thickness-normal edge-pattern-solid edge-thickness-normal edge-pattern-solid flowchart-link" style="" marker-end="url(#mermaid-svg-59_flowchart-v2-pointEnd)"></path><path d="M3840.612,317.996L3423.069,328.33C3005.525,338.664,2170.438,359.332,1752.894,380.333C1335.35,401.333,1335.35,422.667,1335.35,442C1335.35,461.333,1335.35,478.667,1335.35,491.5C1335.35,504.333,1335.35,512.667,1335.35,521C1335.35,529.333,1335.35,537.667,1335.35,546C1335.35,554.333,1335.35,562.667,1335.35,572.333C1335.35,582,1335.35,593,1335.35,598.5L1335.35,604" id="L_U2_UC11_0" class="edge-thickness-normal edge-pattern-solid edge-thickness-normal edge-pattern-solid flowchart-link" style="" marker-end="url(#mermaid-svg-59_flowchart-v2-pointEnd)"></path><path d="M3840.612,318.208L3464.492,328.507C3088.371,338.805,2336.129,359.403,1960.008,380.368C1583.888,401.333,1583.888,422.667,1583.888,442C1583.888,461.333,1583.888,478.667,1583.888,491.5C1583.888,504.333,1583.888,512.667,1583.888,521C1583.888,529.333,1583.888,537.667,1583.888,546C1583.888,554.333,1583.888,562.667,1583.888,572.333C1583.888,582,1583.888,593,1583.888,598.5L1583.888,604" id="L_U2_UC12_0" class="edge-thickness-normal edge-pattern-solid edge-thickness-normal edge-pattern-solid flowchart-link" style="" marker-end="url(#mermaid-svg-59_flowchart-v2-pointEnd)"></path><path d="M3840.612,318.463L3504.873,328.72C3169.133,338.976,2497.654,359.488,2161.915,380.411C1826.175,401.333,1826.175,422.667,1826.175,442C1826.175,461.333,1826.175,478.667,1826.175,491.5C1826.175,504.333,1826.175,512.667,1826.175,521C1826.175,529.333,1826.175,537.667,1826.175,546C1826.175,554.333,1826.175,562.667,1826.175,572.333C1826.175,582,1826.175,593,1826.175,598.5L1826.175,604" id="L_U2_UC13_0" class="edge-thickness-normal edge-pattern-solid edge-thickness-normal edge-pattern-solid flowchart-link" style="" marker-end="url(#mermaid-svg-59_flowchart-v2-pointEnd)"></path><path d="M2651.088,197.525L2563.133,206.604C2475.179,215.683,2299.271,233.842,2211.317,253.588C2123.363,273.333,2123.363,294.667,2123.363,316C2123.363,337.333,2123.363,358.667,2123.363,380C2123.363,401.333,2123.363,422.667,2123.363,442C2123.363,461.333,2123.363,478.667,2123.363,491.5C2123.363,504.333,2123.363,512.667,2123.363,521C2123.363,529.333,2123.363,537.667,2123.363,546C2123.363,554.333,2123.363,562.667,2123.363,570.333C2123.363,578,2123.363,585,2123.363,588.5L2123.363,592" id="L_U3_UC14_0" class="edge-thickness-normal edge-pattern-solid edge-thickness-normal edge-pattern-solid flowchart-link" style="" marker-end="url(#mermaid-svg-59_flowchart-v2-pointEnd)"></path><path d="M2651.088,207.05L2614.8,214.542C2578.513,222.034,2505.938,237.017,2469.65,255.175C2433.363,273.333,2433.363,294.667,2433.363,316C2433.363,337.333,2433.363,358.667,2433.363,380C2433.363,401.333,2433.363,422.667,2433.363,442C2433.363,461.333,2433.363,478.667,2433.363,491.5C2433.363,504.333,2433.363,512.667,2433.363,521C2433.363,529.333,2433.363,537.667,2433.363,546C2433.363,554.333,2433.363,562.667,2433.363,570.333C2433.363,578,2433.363,585,2433.363,588.5L2433.363,592" id="L_U3_UC15_0" class="edge-thickness-normal edge-pattern-solid edge-thickness-normal edge-pattern-solid flowchart-link" style="" marker-end="url(#mermaid-svg-59_flowchart-v2-pointEnd)"></path><path d="M2743.363,215L2743.363,221.167C2743.363,227.333,2743.363,239.667,2743.363,256.5C2743.363,273.333,2743.363,294.667,2743.363,316C2743.363,337.333,2743.363,358.667,2743.363,380C2743.363,401.333,2743.363,422.667,2743.363,442C2743.363,461.333,2743.363,478.667,2743.363,491.5C2743.363,504.333,2743.363,512.667,2743.363,521C2743.363,529.333,2743.363,537.667,2743.363,546C2743.363,554.333,2743.363,562.667,2743.363,570.333C2743.363,578,2743.363,585,2743.363,588.5L2743.363,592" id="L_U3_UC16_0" class="edge-thickness-normal edge-pattern-solid edge-thickness-normal edge-pattern-solid flowchart-link" style="" marker-end="url(#mermaid-svg-59_flowchart-v2-pointEnd)"></path><path d="M2835.638,209.699L2865.618,216.749C2895.598,223.8,2955.558,237.9,2985.539,255.617C3015.519,273.333,3015.519,294.667,3015.519,316C3015.519,337.333,3015.519,358.667,3015.519,380C3015.519,401.333,3015.519,422.667,3015.519,442C3015.519,461.333,3015.519,478.667,3015.519,491.5C3015.519,504.333,3015.519,512.667,3015.519,521C3015.519,529.333,3015.519,537.667,3015.519,546C3015.519,554.333,3015.519,562.667,3015.519,572.333C3015.519,582,3015.519,593,3015.519,598.5L3015.519,604" id="L_U3_UC17_0" class="edge-thickness-normal edge-pattern-solid edge-thickness-normal edge-pattern-solid flowchart-link" style="" marker-end="url(#mermaid-svg-59_flowchart-v2-pointEnd)"></path><path d="M640.463,71.308L563.802,80.09C487.142,88.872,333.821,106.436,257.16,125.885C180.5,145.333,180.5,166.667,180.5,188C180.5,209.333,180.5,230.667,180.5,252C180.5,273.333,180.5,294.667,180.5,316C180.5,337.333,180.5,358.667,180.5,380C180.5,401.333,180.5,422.667,180.5,442C180.5,461.333,180.5,478.667,180.5,491.5C180.5,504.333,180.5,512.667,180.5,521C180.5,529.333,180.5,537.667,180.5,546C180.5,554.333,180.5,562.667,180.5,572.333C180.5,582,180.5,593,180.5,598.5L180.5,604" id="L_U4_UC18_0" class="edge-thickness-normal edge-pattern-solid edge-thickness-normal edge-pattern-solid flowchart-link" style="" marker-end="url(#mermaid-svg-59_flowchart-v2-pointEnd)"></path><path d="M640.463,82.526L610.171,89.438C579.879,96.35,519.296,110.175,489.004,127.754C458.713,145.333,458.713,166.667,458.713,188C458.713,209.333,458.713,230.667,458.713,252C458.713,273.333,458.713,294.667,458.713,316C458.713,337.333,458.713,358.667,458.713,380C458.713,401.333,458.713,422.667,458.713,442C458.713,461.333,458.713,478.667,458.713,491.5C458.713,504.333,458.713,512.667,458.713,521C458.713,529.333,458.713,537.667,458.713,546C458.713,554.333,458.713,562.667,458.713,572.333C458.713,582,458.713,593,458.713,598.5L458.713,604" id="L_U4_UC19_0" class="edge-thickness-normal edge-pattern-solid edge-thickness-normal edge-pattern-solid flowchart-link" style="" marker-end="url(#mermaid-svg-59_flowchart-v2-pointEnd)"></path><path d="M739.175,87L739.175,93.167C739.175,99.333,739.175,111.667,739.175,128.5C739.175,145.333,739.175,166.667,739.175,188C739.175,209.333,739.175,230.667,739.175,252C739.175,273.333,739.175,294.667,739.175,316C739.175,337.333,739.175,358.667,739.175,380C739.175,401.333,739.175,422.667,739.175,442C739.175,461.333,739.175,478.667,739.175,491.5C739.175,504.333,739.175,512.667,739.175,521C739.175,529.333,739.175,537.667,739.175,546C739.175,554.333,739.175,562.667,739.175,572.333C739.175,582,739.175,593,739.175,598.5L739.175,604" id="L_U4_UC20_0" class="edge-thickness-normal edge-pattern-solid edge-thickness-normal edge-pattern-solid flowchart-link" style="" marker-end="url(#mermaid-svg-59_flowchart-v2-pointEnd)"></path><path d="M837.888,82.87L867.476,89.725C897.065,96.58,956.242,110.29,985.83,127.812C1015.419,145.333,1015.419,166.667,1015.419,188C1015.419,209.333,1015.419,230.667,1015.419,252C1015.419,273.333,1015.419,294.667,1015.419,316C1015.419,337.333,1015.419,358.667,1015.419,380C1015.419,401.333,1015.419,422.667,1015.419,442C1015.419,461.333,1015.419,478.667,1015.419,491.5C1015.419,504.333,1015.419,512.667,1015.419,521C1015.419,529.333,1015.419,537.667,1015.419,546C1015.419,554.333,1015.419,562.667,1015.419,572.333C1015.419,582,1015.419,593,1015.419,598.5L1015.419,604" id="L_U4_UC21_0" class="edge-thickness-normal edge-pattern-solid edge-thickness-normal edge-pattern-solid flowchart-link" style="" marker-end="url(#mermaid-svg-59_flowchart-v2-pointEnd)"></path><path d="M4001.9,319.847L4212.038,329.873C4422.175,339.898,4842.45,359.949,5052.588,375.475C5262.725,391,5262.725,402,5262.725,407.5L5262.725,413" id="L_U2_U1_0" class="edge-thickness-normal edge-pattern-dotted edge-thickness-normal edge-pattern-solid flowchart-link" style="" marker-end="url(#mermaid-svg-59_flowchart-v2-pointEnd)"></path><path d="M2835.638,193.014L3016.574,202.845C3197.51,212.676,3559.383,232.338,3740.32,247.669C3921.256,263,3921.256,274,3921.256,279.5L3921.256,285" id="L_U3_U2_0" class="edge-thickness-normal edge-pattern-dotted edge-thickness-normal edge-pattern-solid flowchart-link" style="" marker-end="url(#mermaid-svg-59_flowchart-v2-pointEnd)"></path><path d="M837.888,63.152L1155.467,73.294C1473.046,83.435,2108.204,103.717,2425.783,119.359C2743.363,135,2743.363,146,2743.363,151.5L2743.363,157" id="L_U4_U3_0" class="edge-thickness-normal edge-pattern-dotted edge-thickness-normal edge-pattern-solid flowchart-link" style="" marker-end="url(#mermaid-svg-59_flowchart-v2-pointEnd)"></path></g><g class="edgeLabels"><g class="edgeLabel"><g class="label" transform="translate(0, 0)"><foreignObject width="0" height="0"><div xmlns="http://www.w3.org/1999/xhtml" class="labelBkg" style="display: table-cell; white-space: nowrap; line-height: 1.5; max-width: 200px; text-align: center;"><span class="edgeLabel"></span></div></foreignObject></g></g><g class="edgeLabel"><g class="label" transform="translate(0, 0)"><foreignObject width="0" height="0"><div xmlns="http://www.w3.org/1999/xhtml" class="labelBkg" style="display: table-cell; white-space: nowrap; line-height: 1.5; max-width: 200px; text-align: center;"><span class="edgeLabel"></span></div></foreignObject></g></g><g class="edgeLabel"><g class="label" transform="translate(0, 0)"><foreignObject width="0" height="0"><div xmlns="http://www.w3.org/1999/xhtml" class="labelBkg" style="display: table-cell; white-space: nowrap; line-height: 1.5; max-width: 200px; text-align: center;"><span class="edgeLabel"></span></div></foreignObject></g></g><g class="edgeLabel"><g class="label" transform="translate(0, 0)"><foreignObject width="0" height="0"><div xmlns="http://www.w3.org/1999/xhtml" class="labelBkg" style="display: table-cell; white-space: nowrap; line-height: 1.5; max-width: 200px; text-align: center;"><span class="edgeLabel"></span></div></foreignObject></g></g><g class="edgeLabel"><g class="label" transform="translate(0, 0)"><foreignObject width="0" height="0"><div xmlns="http://www.w3.org/1999/xhtml" class="labelBkg" style="display: table-cell; white-space: nowrap; line-height: 1.5; max-width: 200px; text-align: center;"><span class="edgeLabel"></span></div></foreignObject></g></g><g class="edgeLabel"><g class="label" transform="translate(0, 0)"><foreignObject width="0" height="0"><div xmlns="http://www.w3.org/1999/xhtml" class="labelBkg" style="display: table-cell; white-space: nowrap; line-height: 1.5; max-width: 200px; text-align: center;"><span class="edgeLabel"></span></div></foreignObject></g></g><g class="edgeLabel"><g class="label" transform="translate(0, 0)"><foreignObject width="0" height="0"><div xmlns="http://www.w3.org/1999/xhtml" class="labelBkg" style="display: table-cell; white-space: nowrap; line-height: 1.5; max-width: 200px; text-align: center;"><span class="edgeLabel"></span></div></foreignObject></g></g><g class="edgeLabel"><g class="label" transform="translate(0, 0)"><foreignObject width="0" height="0"><div xmlns="http://www.w3.org/1999/xhtml" class="labelBkg" style="display: table-cell; white-space: nowrap; line-height: 1.5; max-width: 200px; text-align: center;"><span class="edgeLabel"></span></div></foreignObject></g></g><g class="edgeLabel"><g class="label" transform="translate(0, 0)"><foreignObject width="0" height="0"><div xmlns="http://www.w3.org/1999/xhtml" class="labelBkg" style="display: table-cell; white-space: nowrap; line-height: 1.5; max-width: 200px; text-align: center;"><span class="edgeLabel"></span></div></foreignObject></g></g><g class="edgeLabel"><g class="label" transform="translate(0, 0)"><foreignObject width="0" height="0"><div xmlns="http://www.w3.org/1999/xhtml" class="labelBkg" style="display: table-cell; white-space: nowrap; line-height: 1.5; max-width: 200px; text-align: center;"><span class="edgeLabel"></span></div></foreignObject></g></g><g class="edgeLabel"><g class="label" transform="translate(0, 0)"><foreignObject width="0" height="0"><div xmlns="http://www.w3.org/1999/xhtml" class="labelBkg" style="display: table-cell; white-space: nowrap; line-height: 1.5; max-width: 200px; text-align: center;"><span class="edgeLabel"></span></div></foreignObject></g></g><g class="edgeLabel"><g class="label" transform="translate(0, 0)"><foreignObject width="0" height="0"><div xmlns="http://www.w3.org/1999/xhtml" class="labelBkg" style="display: table-cell; white-space: nowrap; line-height: 1.5; max-width: 200px; text-align: center;"><span class="edgeLabel"></span></div></foreignObject></g></g><g class="edgeLabel"><g class="label" transform="translate(0, 0)"><foreignObject width="0" height="0"><div xmlns="http://www.w3.org/1999/xhtml" class="labelBkg" style="display: table-cell; white-space: nowrap; line-height: 1.5; max-width: 200px; text-align: center;"><span class="edgeLabel"></span></div></foreignObject></g></g><g class="edgeLabel"><g class="label" transform="translate(0, 0)"><foreignObject width="0" height="0"><div xmlns="http://www.w3.org/1999/xhtml" class="labelBkg" style="display: table-cell; white-space: nowrap; line-height: 1.5; max-width: 200px; text-align: center;"><span class="edgeLabel"></span></div></foreignObject></g></g><g class="edgeLabel"><g class="label" transform="translate(0, 0)"><foreignObject width="0" height="0"><div xmlns="http://www.w3.org/1999/xhtml" class="labelBkg" style="display: table-cell; white-space: nowrap; line-height: 1.5; max-width: 200px; text-align: center;"><span class="edgeLabel"></span></div></foreignObject></g></g><g class="edgeLabel"><g class="label" transform="translate(0, 0)"><foreignObject width="0" height="0"><div xmlns="http://www.w3.org/1999/xhtml" class="labelBkg" style="display: table-cell; white-space: nowrap; line-height: 1.5; max-width: 200px; text-align: center;"><span class="edgeLabel"></span></div></foreignObject></g></g><g class="edgeLabel"><g class="label" transform="translate(0, 0)"><foreignObject width="0" height="0"><div xmlns="http://www.w3.org/1999/xhtml" class="labelBkg" style="display: table-cell; white-space: nowrap; line-height: 1.5; max-width: 200px; text-align: center;"><span class="edgeLabel"></span></div></foreignObject></g></g><g class="edgeLabel"><g class="label" transform="translate(0, 0)"><foreignObject width="0" height="0"><div xmlns="http://www.w3.org/1999/xhtml" class="labelBkg" style="display: table-cell; white-space: nowrap; line-height: 1.5; max-width: 200px; text-align: center;"><span class="edgeLabel"></span></div></foreignObject></g></g><g class="edgeLabel"><g class="label" transform="translate(0, 0)"><foreignObject width="0" height="0"><div xmlns="http://www.w3.org/1999/xhtml" class="labelBkg" style="display: table-cell; white-space: nowrap; line-height: 1.5; max-width: 200px; text-align: center;"><span class="edgeLabel"></span></div></foreignObject></g></g><g class="edgeLabel"><g class="label" transform="translate(0, 0)"><foreignObject width="0" height="0"><div xmlns="http://www.w3.org/1999/xhtml" class="labelBkg" style="display: table-cell; white-space: nowrap; line-height: 1.5; max-width: 200px; text-align: center;"><span class="edgeLabel"></span></div></foreignObject></g></g><g class="edgeLabel"><g class="label" transform="translate(0, 0)"><foreignObject width="0" height="0"><div xmlns="http://www.w3.org/1999/xhtml" class="labelBkg" style="display: table-cell; white-space: nowrap; line-height: 1.5; max-width: 200px; text-align: center;"><span class="edgeLabel"></span></div></foreignObject></g></g><g class="edgeLabel" transform="translate(5262.725006103516, 380)"><g class="label" transform="translate(-38.03750228881836, -12)"><foreignObject width="76.07500457763672" height="24"><div xmlns="http://www.w3.org/1999/xhtml" class="labelBkg" style="display: table-cell; white-space: nowrap; line-height: 1.5; max-width: 200px; text-align: center;"><span class="edgeLabel"><p>наследует</p></span></div></foreignObject></g></g><g class="edgeLabel" transform="translate(3921.256248474121, 252)"><g class="label" transform="translate(-38.03750228881836, -12)"><foreignObject width="76.07500457763672" height="24"><div xmlns="http://www.w3.org/1999/xhtml" class="labelBkg" style="display: table-cell; white-space: nowrap; line-height: 1.5; max-width: 200px; text-align: center;"><span class="edgeLabel"><p>наследует</p></span></div></foreignObject></g></g><g class="edgeLabel" transform="translate(2743.362503051758, 124)"><g class="label" transform="translate(-38.03750228881836, -12)"><foreignObject width="76.07500457763672" height="24"><div xmlns="http://www.w3.org/1999/xhtml" class="labelBkg" style="display: table-cell; white-space: nowrap; line-height: 1.5; max-width: 200px; text-align: center;"><span class="edgeLabel"><p>наследует</p></span></div></foreignObject></g></g></g><g class="nodes"><g class="node default" id="flowchart-U1-0" transform="translate(5262.725006103516, 444)"><rect class="basic label-container" style="" x="-50.10625076293945" y="-27" width="100.2125015258789" height="54"></rect><g class="label" style="" transform="translate(-20.106250762939453, -12)"><rect></rect><foreignObject width="40.212501525878906" height="24"><div xmlns="http://www.w3.org/1999/xhtml" style="display: table-cell; white-space: nowrap; line-height: 1.5; max-width: 200px; text-align: center;"><span class="nodeLabel"><p>Гость</p></span></div></foreignObject></g></g><g class="node default" id="flowchart-U2-1" transform="translate(3921.256248474121, 316)"><rect class="basic label-container" style="" x="-80.64374923706055" y="-27" width="161.2874984741211" height="54"></rect><g class="label" style="" transform="translate(-50.64374923706055, -12)"><rect></rect><foreignObject width="101.2874984741211" height="24"><div xmlns="http://www.w3.org/1999/xhtml" style="display: table-cell; white-space: nowrap; line-height: 1.5; max-width: 200px; text-align: center;"><span class="nodeLabel"><p>Пользователь</p></span></div></foreignObject></g></g><g class="node default" id="flowchart-U3-2" transform="translate(2743.362503051758, 188)"><rect class="basic label-container" style="" x="-92.2750015258789" y="-27" width="184.5500030517578" height="54"></rect><g class="label" style="" transform="translate(-62.275001525878906, -12)"><rect></rect><foreignObject width="124.55000305175781" height="24"><div xmlns="http://www.w3.org/1999/xhtml" style="display: table-cell; white-space: nowrap; line-height: 1.5; max-width: 200px; text-align: center;"><span class="nodeLabel"><p>Участник группы</p></span></div></foreignObject></g></g><g class="node default" id="flowchart-U4-3" transform="translate(739.1750030517578, 60)"><rect class="basic label-container" style="" x="-98.7125015258789" y="-27" width="197.4250030517578" height="54"></rect><g class="label" style="" transform="translate(-68.7125015258789, -12)"><rect></rect><foreignObject width="137.4250030517578" height="24"><div xmlns="http://www.w3.org/1999/xhtml" style="display: table-cell; white-space: nowrap; line-height: 1.5; max-width: 200px; text-align: center;"><span class="nodeLabel"><p>Модератор группы</p></span></div></foreignObject></g></g><g class="node default" id="flowchart-UC1-4" transform="translate(5050.056259155273, 635)"><rect class="basic label-container" style="" x="-76.21875" y="-27" width="152.4375" height="54"></rect><g class="label" style="" transform="translate(-46.21875, -12)"><rect></rect><foreignObject width="92.4375" height="24"><div xmlns="http://www.w3.org/1999/xhtml" style="display: table-cell; white-space: nowrap; line-height: 1.5; max-width: 200px; text-align: center;"><span class="nodeLabel"><p>Регистрация</p></span></div></foreignObject></g></g><g class="node default" id="flowchart-UC2-5" transform="translate(5262.725006103516, 635)"><rect class="basic label-container" style="" x="-86.45000076293945" y="-27" width="172.9000015258789" height="54"></rect><g class="label" style="" transform="translate(-56.45000076293945, -12)"><rect></rect><foreignObject width="112.9000015258789" height="24"><div xmlns="http://www.w3.org/1999/xhtml" style="display: table-cell; white-space: nowrap; line-height: 1.5; max-width: 200px; text-align: center;"><span class="nodeLabel"><p>Вход в систему</p></span></div></foreignObject></g></g><g class="node default" id="flowchart-UC3-6" transform="translate(5517.231254577637, 635)"><rect class="basic label-container" style="" x="-118.0562515258789" y="-27" width="236.1125030517578" height="54"></rect><g class="label" style="" transform="translate(-88.0562515258789, -12)"><rect></rect><foreignObject width="176.1125030517578" height="24"><div xmlns="http://www.w3.org/1999/xhtml" style="display: table-cell; white-space: nowrap; line-height: 1.5; max-width: 200px; text-align: center;"><span class="nodeLabel"><p>Восстановление пароля</p></span></div></foreignObject></g></g><g class="node default" id="flowchart-UC4-7" transform="translate(5810.612503051758, 635)"><rect class="basic label-container" style="" x="-125.32500457763672" y="-27" width="250.65000915527344" height="54"></rect><g class="label" style="" transform="translate(-95.32500457763672, -12)"><rect></rect><foreignObject width="190.65000915527344" height="24"><div xmlns="http://www.w3.org/1999/xhtml" style="display: table-cell; white-space: nowrap; line-height: 1.5; max-width: 200px; text-align: center;"><span class="nodeLabel"><p>Редактирование профиля</p></span></div></foreignObject></g></g><g class="node default" id="flowchart-UC5-8" transform="translate(3323.375, 635)"><rect class="basic label-container" style="" x="-125.70000457763672" y="-27" width="251.40000915527344" height="54"></rect><g class="label" style="" transform="translate(-95.70000457763672, -12)"><rect></rect><foreignObject width="191.40000915527344" height="24"><div xmlns="http://www.w3.org/1999/xhtml" style="display: table-cell; white-space: nowrap; line-height: 1.5; max-width: 200px; text-align: center;"><span class="nodeLabel"><p>Создать привычку/задачу</p></span></div></foreignObject></g></g><g class="node default" id="flowchart-UC6-9" transform="translate(3629.074996948242, 635)"><rect class="basic label-container" style="" x="-130" y="-39" width="260" height="78"></rect><g class="label" style="" transform="translate(-100, -24)"><rect></rect><foreignObject width="200" height="48"><div xmlns="http://www.w3.org/1999/xhtml" style="display: table; white-space: break-spaces; line-height: 1.5; max-width: 200px; text-align: center; width: 200px;"><span class="nodeLabel"><p>Просмотр списка привычек</p></span></div></foreignObject></g></g><g class="node default" id="flowchart-UC7-10" transform="translate(3921.256248474121, 635)"><rect class="basic label-container" style="" x="-112.1812515258789" y="-27" width="224.3625030517578" height="54"></rect><g class="label" style="" transform="translate(-82.1812515258789, -12)"><rect></rect><foreignObject width="164.3625030517578" height="24"><div xmlns="http://www.w3.org/1999/xhtml" style="display: table-cell; white-space: nowrap; line-height: 1.5; max-width: 200px; text-align: center;"><span class="nodeLabel"><p>Отметить выполнение</p></span></div></foreignObject></g></g><g class="node default" id="flowchart-UC8-11" transform="translate(4205.768753051758, 635)"><rect class="basic label-container" style="" x="-122.33125305175781" y="-27" width="244.66250610351562" height="54"></rect><g class="label" style="" transform="translate(-92.33125305175781, -12)"><rect></rect><foreignObject width="184.66250610351562" height="24"><div xmlns="http://www.w3.org/1999/xhtml" style="display: table-cell; white-space: nowrap; line-height: 1.5; max-width: 200px; text-align: center;"><span class="nodeLabel"><p>Редактировать привычку</p></span></div></foreignObject></g></g><g class="node default" id="flowchart-UC9-12" transform="translate(4475.9687576293945, 635)"><rect class="basic label-container" style="" x="-97.8687515258789" y="-27" width="195.7375030517578" height="54"></rect><g class="label" style="" transform="translate(-67.8687515258789, -12)"><rect></rect><foreignObject width="135.7375030517578" height="24"><div xmlns="http://www.w3.org/1999/xhtml" style="display: table-cell; white-space: nowrap; line-height: 1.5; max-width: 200px; text-align: center;"><span class="nodeLabel"><p>Удалить привычку</p></span></div></foreignObject></g></g><g class="node default" id="flowchart-UC10-13" transform="translate(4753.837509155273, 635)"><rect class="basic label-container" style="" x="-130" y="-39" width="260" height="78"></rect><g class="label" style="" transform="translate(-100, -24)"><rect></rect><foreignObject width="200" height="48"><div xmlns="http://www.w3.org/1999/xhtml" style="display: table; white-space: break-spaces; line-height: 1.5; max-width: 200px; text-align: center; width: 200px;"><span class="nodeLabel"><p>Просмотр персональной статистики</p></span></div></foreignObject></g></g><g class="node default" id="flowchart-UC11-14" transform="translate(1335.3500061035156, 635)"><rect class="basic label-container" style="" x="-123.4375" y="-27" width="246.875" height="54"></rect><g class="label" style="" transform="translate(-93.4375, -12)"><rect></rect><foreignObject width="186.875" height="24"><div xmlns="http://www.w3.org/1999/xhtml" style="display: table-cell; white-space: nowrap; line-height: 1.5; max-width: 200px; text-align: center;"><span class="nodeLabel"><p>Просмотр каталога групп</p></span></div></foreignObject></g></g><g class="node default" id="flowchart-UC12-15" transform="translate(1583.8875045776367, 635)"><rect class="basic label-container" style="" x="-75.10000228881836" y="-27" width="150.20000457763672" height="54"></rect><g class="label" style="" transform="translate(-45.10000228881836, -12)"><rect></rect><foreignObject width="90.20000457763672" height="24"><div xmlns="http://www.w3.org/1999/xhtml" style="display: table-cell; white-space: nowrap; line-height: 1.5; max-width: 200px; text-align: center;"><span class="nodeLabel"><p>Поиск групп</p></span></div></foreignObject></g></g><g class="node default" id="flowchart-UC13-16" transform="translate(1826.1750030517578, 635)"><rect class="basic label-container" style="" x="-117.1875" y="-27" width="234.375" height="54"></rect><g class="label" style="" transform="translate(-87.1875, -12)"><rect></rect><foreignObject width="174.375" height="24"><div xmlns="http://www.w3.org/1999/xhtml" style="display: table-cell; white-space: nowrap; line-height: 1.5; max-width: 200px; text-align: center;"><span class="nodeLabel"><p>Подача заявки в группу</p></span></div></foreignObject></g></g><g class="node default" id="flowchart-UC14-17" transform="translate(2123.362503051758, 635)"><rect class="basic label-container" style="" x="-130" y="-39" width="260" height="78"></rect><g class="label" style="" transform="translate(-100, -24)"><rect></rect><foreignObject width="200" height="48"><div xmlns="http://www.w3.org/1999/xhtml" style="display: table; white-space: break-spaces; line-height: 1.5; max-width: 200px; text-align: center; width: 200px;"><span class="nodeLabel"><p>Просмотр содержимого группы</p></span></div></foreignObject></g></g><g class="node default" id="flowchart-UC15-18" transform="translate(2433.362503051758, 635)"><rect class="basic label-container" style="" x="-130" y="-39" width="260" height="78"></rect><g class="label" style="" transform="translate(-100, -24)"><rect></rect><foreignObject width="200" height="48"><div xmlns="http://www.w3.org/1999/xhtml" style="display: table; white-space: break-spaces; line-height: 1.5; max-width: 200px; text-align: center; width: 200px;"><span class="nodeLabel"><p>Поделиться прогрессом в группе</p></span></div></foreignObject></g></g><g class="node default" id="flowchart-UC16-19" transform="translate(2743.362503051758, 635)"><rect class="basic label-container" style="" x="-130" y="-39" width="260" height="78"></rect><g class="label" style="" transform="translate(-100, -24)"><rect></rect><foreignObject width="200" height="48"><div xmlns="http://www.w3.org/1999/xhtml" style="display: table; white-space: break-spaces; line-height: 1.5; max-width: 200px; text-align: center; width: 200px;"><span class="nodeLabel"><p>Оставить комментарий/like</p></span></div></foreignObject></g></g><g class="node default" id="flowchart-UC17-20" transform="translate(3015.518753051758, 635)"><rect class="basic label-container" style="" x="-92.15625" y="-27" width="184.3125" height="54"></rect><g class="label" style="" transform="translate(-62.15625, -12)"><rect></rect><foreignObject width="124.3125" height="24"><div xmlns="http://www.w3.org/1999/xhtml" style="display: table-cell; white-space: nowrap; line-height: 1.5; max-width: 200px; text-align: center;"><span class="nodeLabel"><p>Выход из группы</p></span></div></foreignObject></g></g><g class="node default" id="flowchart-UC18-21" transform="translate(180.5, 635)"><rect class="basic label-container" style="" x="-117.5" y="-27" width="235" height="54"></rect><g class="label" style="" transform="translate(-87.5, -12)"><rect></rect><foreignObject width="175" height="24"><div xmlns="http://www.w3.org/1999/xhtml" style="display: table-cell; white-space: nowrap; line-height: 1.5; max-width: 200px; text-align: center;"><span class="nodeLabel"><p>Создание новой группы</p></span></div></foreignObject></g></g><g class="node default" id="flowchart-UC19-22" transform="translate(458.7125015258789, 635)"><rect class="basic label-container" style="" x="-110.7125015258789" y="-27" width="221.4250030517578" height="54"></rect><g class="label" style="" transform="translate(-80.7125015258789, -12)"><rect></rect><foreignObject width="161.4250030517578" height="24"><div xmlns="http://www.w3.org/1999/xhtml" style="display: table-cell; white-space: nowrap; line-height: 1.5; max-width: 200px; text-align: center;"><span class="nodeLabel"><p>Управление заявками</p></span></div></foreignObject></g></g><g class="node default" id="flowchart-UC20-23" transform="translate(739.1750030517578, 635)"><rect class="basic label-container" style="" x="-119.75" y="-27" width="239.5" height="54"></rect><g class="label" style="" transform="translate(-89.75, -12)"><rect></rect><foreignObject width="179.5" height="24"><div xmlns="http://www.w3.org/1999/xhtml" style="display: table-cell; white-space: nowrap; line-height: 1.5; max-width: 200px; text-align: center;"><span class="nodeLabel"><p>Исключение участников</p></span></div></foreignObject></g></g><g class="node default" id="flowchart-UC21-24" transform="translate(1015.4187545776367, 635)"><rect class="basic label-container" style="" x="-106.4937515258789" y="-27" width="212.9875030517578" height="54"></rect><g class="label" style="" transform="translate(-76.4937515258789, -12)"><rect></rect><foreignObject width="152.9875030517578" height="24"><div xmlns="http://www.w3.org/1999/xhtml" style="display: table-cell; white-space: nowrap; line-height: 1.5; max-width: 200px; text-align: center;"><span class="nodeLabel"><p>Модерация контента</p></span></div></foreignObject></g></g></g></g></g></svg>